<?xml version="1.0" encoding="utf-8"?>
<svg viewBox="0 0 86.69 38.5" width="100%" height="100%" xmlns="http://www.w3.org/2000/svg">
  <defs>
    <radialGradient gradientUnits="userSpaceOnUse" cx="14.53" cy="11.68" r="43.35" id="gradient-0" gradientTransform="matrix(1.550914, 0.647258, -0.385144, 0.922857, -0.499359, -12.506362)">
      <stop offset="0" style="stop-color: rgba(0, 77, 64, 1)"/>
      <stop offset="1" style="stop-color: rgba(0, 0, 0, 1)"/>
    </radialGradient>
  </defs>
  <path d="M 18 0 C 13.1 -0.02 7.88 1.99 4.59 5.8 C 1.41 9.49 0 14.38 0 19.19 L 0 19.99 C 0 24.74 1.77 29.66 5.12 33.12 C 5.13 33.12 5.13 33.13 5.14 33.14 C 8.59 36.67 13.64 38.46 18.48 38.5 L 86.69 38.5 L 78.99 0 L 18 0 Z" style="fill: url(#gradient-0);"/>
  <path fill="#fff" d="M 20.86 16.54 C 20.86 14.21 19.9 13.05 17.98 13.05 C 16.11 13.05 15.06 14.36 14.83 16.98 L 14.9 17.09 L 20.86 17.09 Z M 7.7 19.99 L 7.7 19.19 C 7.7 15.72 8.61 12.93 10.42 10.83 C 12.23 8.73 14.75 7.69 17.98 7.7 C 21 7.7 23.36 8.6 25.06 10.4 C 26.78 12.2 27.64 14.65 27.64 17.78 L 27.64 21.43 L 14.94 21.43 L 14.9 21.55 C 15.05 22.73 15.52 23.69 16.31 24.4 C 17.1 25.12 18.13 25.47 19.4 25.47 C 20.68 25.47 21.7 25.38 22.46 25.2 C 23.22 25.02 24.26 24.65 25.59 24.1 L 27.23 28.31 C 26.21 29.05 24.92 29.66 23.37 30.11 C 21.83 30.57 20.2 30.8 18.48 30.8 C 15.24 30.8 12.63 29.78 10.65 27.76 C 8.68 25.73 7.7 23.14 7.7 19.99 Z M 29.14 8.09 L 35.65 8.09 L 35.92 11.22 C 37.46 8.86 39.55 7.68 42.2 7.68 C 46.83 7.68 49.15 10.63 49.15 16.54 L 49.15 30.34 L 42.2 30.34 L 42.2 16.52 C 42.2 15.27 41.95 14.38 41.43 13.85 C 40.93 13.3 40.1 13.03 38.96 13.03 C 37.82 13.03 36.85 13.47 36.06 14.35 L 36.06 30.34 L 29.14 30.34 Z M 64.35 24.93 L 64.35 15.68 C 63.67 14.55 62.58 13.98 61.08 13.98 C 58.75 13.98 57.59 16.06 57.59 20.2 L 57.61 20.63 C 57.61 22.52 57.88 23.95 58.41 24.93 C 58.96 25.89 59.84 26.37 61.06 26.37 C 62.61 26.37 63.71 25.89 64.35 24.93 Z M 50.64 20.2 C 50.64 16.66 51.41 13.86 52.93 11.77 C 54.45 9.68 56.58 8.64 59.33 8.64 C 61.59 8.64 63.39 9.71 64.72 11.84 L 65.29 9.05 L 71.29 9.05 L 71.29 38.5 L 64.35 38.5 L 64.35 29.24 C 63.07 30.89 61.38 31.71 59.28 31.71 C 56.57 31.71 54.45 30.71 52.93 28.72 C 51.41 26.72 50.64 24.03 50.64 20.63 Z"/>
</svg>